<?xml version="1.0" standalone="no"?>
<!DOCTYPE svg PUBLIC "-//W3C//DTD SVG 20010904//EN"
 "http://www.w3.org/TR/2001/REC-SVG-20010904/DTD/svg10.dtd">
<svg version="1.0" xmlns="http://www.w3.org/2000/svg"
 width="30.000000pt" height="22.000000pt" viewBox="0 0 30.000000 22.000000"
 preserveAspectRatio="xMidYMid meet">

<g transform="translate(0.000000,22.000000) scale(0.100000,-0.100000)"
fill="#000000" stroke="none">
<path d="M195 175 c22 -19 43 -34 48 -35 4 0 7 -4 7 -10 0 -6 -47 -10 -120
-10 -73 0 -120 -4 -120 -10 0 -6 47 -10 120 -10 66 0 120 -3 120 -7 0 -5 -21
-24 -47 -43 -25 -19 -40 -36 -34 -38 12 -4 121 84 121 98 0 13 -105 100 -121
100 -8 0 4 -16 26 -35z"/>
</g>
</svg>
